<svg width="630" height="270" viewBox="0 0 630 270" fill="none" xmlns="http://www.w3.org/2000/svg">
<rect width="630" height="270" rx="135" fill="#FF4D03"/>
<path fill-rule="evenodd" clip-rule="evenodd" d="M374.833 130.792H400.083V139.209H374.833V130.792Z" fill="white"/>
<path fill-rule="evenodd" clip-rule="evenodd" d="M543.167 139.209H517.917V130.792H543.167V139.209Z" fill="white"/>
<path fill-rule="evenodd" clip-rule="evenodd" d="M502.317 85.7331L523.358 64.6914L529.31 70.6429L508.268 91.6846L502.317 85.7331ZM388.691 199.358L409.733 178.317L415.685 184.268L394.643 205.31L388.691 199.358Z" fill="white"/>
<path fill-rule="evenodd" clip-rule="evenodd" d="M415.684 85.7331L394.642 64.6914L388.691 70.6429L409.733 91.6846L415.684 85.7331ZM529.309 199.358L508.267 178.317L502.316 184.268L523.358 205.31L529.309 199.358Z" fill="white"/>
<path fill-rule="evenodd" clip-rule="evenodd" d="M459 97.1252C438.082 97.1252 421.125 114.082 421.125 135C421.125 155.918 438.082 172.875 459 172.875C479.918 172.875 496.875 155.918 496.875 135C496.875 114.082 479.918 97.1252 459 97.1252ZM412.708 135C412.708 109.434 433.434 88.7085 459 88.7085C484.567 88.7085 505.292 109.434 505.292 135C505.292 160.567 484.567 181.292 459 181.292C433.434 181.292 412.708 160.567 412.708 135Z" fill="white"/>
<path fill-rule="evenodd" clip-rule="evenodd" d="M454.792 76.0835V50.8335H463.209V76.0835H454.792Z" fill="white"/>
<path fill-rule="evenodd" clip-rule="evenodd" d="M454.792 219.167V193.917H463.209V219.167H454.792Z" fill="white"/>
<rect x="27" y="32" width="210" height="210" rx="105" fill="white"/>
</svg>
